<?xml version="1.0" encoding="UTF-8" standalone="no"?>
<!DOCTYPE svg PUBLIC "-//W3C//DTD SVG 1.1//EN" "http://www.w3.org/Graphics/SVG/1.1/DTD/svg11.dtd">
<svg version="1.1" xmlns="http://www.w3.org/2000/svg" xmlns:xlink="http://www.w3.org/1999/xlink" preserveAspectRatio="xMidYMid meet" viewBox="0 0 120 100" width="120" height="100"><defs><path d="M43.3 24.46L57.73 48.91L28.86 48.91L0 48.91L14.43 24.46L28.86 0L43.3 24.46Z" id="bmYTfONOD"></path><path d="M105.57 24.46L120 48.91L91.14 48.91L62.27 48.91L76.7 24.46L91.14 0L105.57 24.46Z" id="b7AfezNTeJ"></path><path d="M74.62 24.46L89.05 0L60.19 0L31.33 0L45.76 24.46L60.19 48.91L74.62 24.46Z" id="cdyNR3luX"></path><path d="M74.62 75.54L89.05 100L60.19 100L31.33 100L45.76 75.54L60.19 51.09L74.62 75.54Z" id="bhPmi03hJ"></path><path d="M105.57 75.54L120 51.09L91.14 51.09L62.27 51.09L76.7 75.54L91.14 100L105.57 75.54Z" id="cKSyhvYHE"></path><path d="M43.3 75.54L57.73 51.09L28.86 51.09L0 51.09L14.43 75.54L28.86 100L43.3 75.54Z" id="eE1pRdFJX"></path></defs><g><g><g><use xlink:href="#bmYTfONOD" opacity="1" fill="#d195a9" fill-opacity="1"></use></g><g><use xlink:href="#b7AfezNTeJ" opacity="1" fill="#d195a9" fill-opacity="1"></use></g><g><use xlink:href="#cdyNR3luX" opacity="1" fill="#d195a9" fill-opacity="1"></use></g><g><use xlink:href="#bhPmi03hJ" opacity="1" fill="#d195a9" fill-opacity="1"></use></g><g><use xlink:href="#cKSyhvYHE" opacity="1" fill="#fefefe" fill-opacity="1"></use><g><use xlink:href="#cKSyhvYHE" opacity="1" fill-opacity="0" stroke="#d195a9" stroke-width="1" stroke-opacity="0.35"></use></g></g><g><use xlink:href="#eE1pRdFJX" opacity="1" fill="#d195a9" fill-opacity="1"></use></g></g></g></svg>