<?xml version="1.0" encoding="UTF-8" standalone="no"?>
<!DOCTYPE svg PUBLIC "-//W3C//DTD SVG 1.1//EN" "http://www.w3.org/Graphics/SVG/1.1/DTD/svg11.dtd">
<svg version="1.1" xmlns="http://www.w3.org/2000/svg" xmlns:xlink="http://www.w3.org/1999/xlink" preserveAspectRatio="xMidYMid meet" viewBox="0 0 120 100" width="120" height="100"><defs><path d="M43.3 24.46L57.73 48.91L28.86 48.91L0 48.91L14.43 24.46L28.86 0L43.3 24.46Z" id="aH6doVbGe"></path><path d="M105.57 24.46L120 48.91L91.14 48.91L62.27 48.91L76.7 24.46L91.14 0L105.57 24.46Z" id="d13LRUX3XR"></path><path d="M74.62 24.46L89.05 0L60.19 0L31.33 0L45.76 24.46L60.19 48.91L74.62 24.46Z" id="a1gr3hPE6u"></path><path d="M74.62 75.54L89.05 100L60.19 100L31.33 100L45.76 75.54L60.19 51.09L74.62 75.54Z" id="j30ugsiwdy"></path><path d="M105.57 75.54L120 51.09L91.14 51.09L62.27 51.09L76.7 75.54L91.14 100L105.57 75.54Z" id="d5tTM5O8M"></path><path d="M43.3 75.54L57.73 51.09L28.86 51.09L0 51.09L14.43 75.54L28.86 100L43.3 75.54Z" id="d1XB7s8E3q"></path></defs><g><g><g><use xlink:href="#aH6doVbGe" opacity="1" fill="#d3d3d3" fill-opacity="1"></use></g><g><use xlink:href="#d13LRUX3XR" opacity="1" fill="#d3d3d3" fill-opacity="1"></use></g><g><use xlink:href="#a1gr3hPE6u" opacity="1" fill="#d3d3d3" fill-opacity="1"></use></g><g><use xlink:href="#j30ugsiwdy" opacity="1" fill="#d3d3d3" fill-opacity="1"></use></g><g><use xlink:href="#d5tTM5O8M" opacity="1" fill="#474747" fill-opacity="1"></use></g><g><use xlink:href="#d1XB7s8E3q" opacity="1" fill="#d3d3d3" fill-opacity="1"></use></g></g></g></svg>